<?xml version="1.0" standalone="no"?>
<!DOCTYPE svg PUBLIC "-//W3C//DTD SVG 20010904//EN"
 "http://www.w3.org/TR/2001/REC-SVG-20010904/DTD/svg10.dtd">
<svg version="1.0" xmlns="http://www.w3.org/2000/svg"
 width="337.000000pt" height="337.000000pt" viewBox="0 0 337.000000 337.000000"
 preserveAspectRatio="xMidYMid meet">
<metadata>
Created by potrace 1.14, written by Peter Selinger 2001-2017
</metadata>
<g transform="translate(0.000000,337.000000) scale(0.100000,-0.100000)"
fill="#000000" stroke="none">
<path d="M1480 3199 c-350 -40 -680 -180 -942 -398 -264 -221 -449 -530 -515
-858 -25 -125 -24 -395 1 -518 82 -395 311 -728 665 -966 444 -299 1037 -379
1560 -209 131 43 325 138 446 218 137 91 338 292 428 428 263 398 317 872 148
1300 l-32 80 35 52 c56 84 78 154 84 270 4 92 2 111 -22 185 -83 256 -322 419
-617 420 -117 0 -213 -22 -312 -72 l-73 -38 -68 23 c-231 78 -541 111 -786 83z
m457 -34 c154 -22 363 -77 363 -95 0 -5 -9 -14 -20 -20 -22 -12 -27 -30 -9
-30 6 0 44 22 83 48 44 30 107 60 162 78 79 26 102 29 209 28 102 0 132 -5
201 -27 191 -63 335 -207 388 -386 10 -33 16 -91 16 -145 -1 -134 -43 -243
-136 -346 -22 -24 -31 -41 -24 -45 6 -4 20 1 30 10 17 16 19 13 49 -65 122
-316 117 -688 -14 -1005 -195 -473 -641 -825 -1194 -942 -116 -25 -145 -27
-356 -27 -211 0 -240 2 -356 27 -397 84 -723 273 -961 557 -234 279 -349 609
-335 955 9 216 47 366 141 560 72 148 160 268 286 395 131 130 257 221 425
304 189 94 405 159 595 179 94 10 364 5 457 -8z"/>
<path d="M1540 2610 c-191 -27 -408 -91 -587 -175 -126 -59 -298 -161 -345
-206 -33 -31 -38 -42 -38 -80 0 -34 6 -52 28 -76 60 -70 367 -231 573 -302
379 -129 706 -129 1096 1 222 73 562 259 591 321 18 41 15 85 -8 118 -20 27
-125 97 -260 171 -157 87 -389 171 -576 208 -114 23 -372 34 -474 20z m330
-157 c77 -21 125 -48 183 -101 229 -213 30 -532 -332 -532 -143 0 -249 39
-337 122 -72 68 -97 129 -92 224 3 65 7 78 43 130 104 150 327 215 535 157z"/>
</g>
</svg>
