<svg width="66" height="91" viewBox="0 0 66 91" fill="none" xmlns="http://www.w3.org/2000/svg">
<path d="M63.5064 2.6562C61.9439 0.9374 59.7564 0 57.5689 0H7.8809C5.6934 0 3.50589 0.9375 1.94339 2.6562C0.5372 4.375 -0.244104 6.5624 0.068395 8.9062L9.75589 81.2502C10.5371 86.719 15.0684 90.7814 20.5369 90.7814H44.7559C50.2247 90.7814 54.9119 86.7189 55.5369 81.2502L65.2244 8.9062C65.6931 6.5624 64.9127 4.375 63.5064 2.6562ZM52.5684 80.7812C52.0996 84.6874 50.4063 85 46.5 85H18.5C14.5938 85 13.3494 84.5312 12.7244 80.7812L6.1619 30.1562L9.2869 27.6562C16.0057 22.1874 25.5369 22.6562 31.6309 28.75C35.5371 32.6562 40.8442 34.5 46 34.5C51 33.5 54.4429 33.125 58.1929 30.1562L59.7554 28.9062L52.5684 80.7812ZM62.2559 8.4372L60.0684 24.3752L56.0059 27.6564C49.2871 33.1252 39.7559 32.5002 33.8179 26.4064C26.6304 19.0626 15.0679 18.5939 7.2559 25.1564L5.6934 26.4064L3.19339 8.4374C3.03715 7.0312 3.5059 5.7812 4.28719 4.6874C5.22469 3.7499 6.4747 3.1249 7.88099 3.1249H57.569C58.9752 3.1249 60.2252 3.7499 61.1628 4.6874C61.944 5.7812 62.4121 7.031 62.2559 8.4372Z" fill="#FBFCFD"/>
</svg>
