<svg width="135" height="108" viewBox="0 0 135 108" fill="none" xmlns="http://www.w3.org/2000/svg">
<path d="M4.13257 97.4465C3.81877 98.8233 2.6476 99.6219 1.53259 99.2294C0.411908 98.837 -0.238122 97.405 0.0813344 96.0283C0.804178 92.9167 2.32829 90.2731 4.32866 88.4144C6.33462 86.5556 8.81138 85.4816 11.4505 85.4816C18.679 85.4816 20.6849 90.5484 22.6853 95.6152C24.1086 99.2157 25.5318 102.816 30.1322 102.816C34.7325 102.816 36.1558 99.2155 37.5791 95.6152C39.5851 90.5484 41.5912 85.4816 48.8195 85.4816C56.0479 85.4816 58.0483 90.5484 60.0542 95.6152C61.4775 99.2157 62.9008 102.816 67.5012 102.816C72.1015 102.816 73.5248 99.2155 74.9481 95.6152C76.954 90.5484 78.9545 85.4816 86.1828 85.4816C93.4169 85.4816 95.4172 90.5484 97.4232 95.6152C98.8465 99.2157 100.27 102.816 104.87 102.816C109.47 102.816 110.894 99.2155 112.317 95.6152C114.317 90.5484 116.323 85.4816 123.552 85.4816C126.191 85.4816 128.673 86.5556 130.679 88.4144C132.674 90.2731 134.204 92.9167 134.921 96.042C135.235 97.4189 134.585 98.8438 133.464 99.2294C132.344 99.615 131.184 98.8095 130.87 97.4396C130.405 95.4363 129.43 93.7427 128.141 92.545C126.858 91.354 125.261 90.6656 123.552 90.6656C118.952 90.6656 117.528 94.2661 116.105 97.8595C114.105 102.926 112.099 108 104.87 108C97.6418 108 95.6358 102.926 93.6355 97.8595C92.2122 94.2659 90.7889 90.6656 86.183 90.6656C81.5826 90.6656 80.1593 94.2661 78.7361 97.8595C76.7357 102.926 74.7296 108 67.5013 108C60.273 108 58.2669 102.926 56.2665 97.8595C54.8433 94.2659 53.42 90.6656 48.8196 90.6656C44.2137 90.6656 42.7904 94.2661 41.3671 97.8595C39.3667 102.926 37.3606 108 30.1323 108C22.9039 108 20.8979 102.926 18.8976 97.8595C17.4743 94.2659 16.051 90.6656 11.4507 90.6656C9.74722 90.6656 8.15023 91.354 6.8671 92.545C5.57831 93.7359 4.59762 95.4363 4.13257 97.4465ZM4.13257 54.7092C3.81877 56.0791 2.6476 56.8778 1.53259 56.4922C0.411908 56.0998 -0.238122 54.6678 0.0813344 53.291C0.804178 50.1725 2.32829 47.5358 4.32866 45.6771C6.33462 43.8183 8.81138 42.7375 11.4505 42.7375C18.679 42.7375 20.6849 47.8111 22.6853 52.8779C24.1086 56.4715 25.5318 60.0719 30.1322 60.0719C34.7325 60.0719 36.1558 56.4714 37.5791 52.8779C39.5851 47.8042 41.5912 42.7375 48.8195 42.7375C56.0479 42.7375 58.0483 47.8111 60.0542 52.8779C61.4775 56.4715 62.9008 60.0719 67.5012 60.0719C72.1015 60.0719 73.5248 56.4714 74.9481 52.8779C76.954 47.8042 78.9545 42.7375 86.1828 42.7375C93.4169 42.7375 95.4172 47.8111 97.4232 52.8779C98.8465 56.4715 100.27 60.0719 104.87 60.0719C109.47 60.0719 110.894 56.4714 112.317 52.8779C114.317 47.8042 116.323 42.7375 123.552 42.7375C126.191 42.7375 128.673 43.8183 130.679 45.6771C132.674 47.5358 134.204 50.1794 134.921 53.2979C135.235 54.6747 134.585 56.1067 133.464 56.4922C132.344 56.8776 131.184 56.0722 130.87 54.6954C130.405 52.699 129.43 50.9985 128.141 49.8077C126.858 48.6167 125.261 47.9214 123.552 47.9214C118.952 47.9214 117.528 51.5219 116.105 55.1223C114.105 60.1891 112.099 65.2559 104.87 65.2559C97.6418 65.2559 95.6358 60.1891 93.6355 55.1223C92.2122 51.5218 90.7889 47.9214 86.183 47.9214C81.5826 47.9214 80.1593 51.5219 78.7361 55.1223C76.7357 60.1891 74.7296 65.2559 67.5013 65.2559C60.273 65.2559 58.2669 60.1891 56.2665 55.1223C54.8433 51.5218 53.42 47.9214 48.8196 47.9214C44.2137 47.9214 42.7904 51.5219 41.3671 55.1223C39.3667 60.1891 37.3606 65.2559 30.1323 65.2559C22.9039 65.2559 20.8979 60.1891 18.8976 55.1223C17.4743 51.5218 16.051 47.9214 11.4507 47.9214C9.74722 47.9214 8.15023 48.6167 6.8671 49.8077C5.57831 50.9987 4.59762 52.699 4.13257 54.7092ZM4.13257 11.9649C3.81877 13.3417 2.6476 14.1403 1.53259 13.7478C0.411908 13.3623 -0.238122 11.9234 0.0813344 10.5536C0.804178 7.43505 2.32829 4.79151 4.32866 2.93962C6.33462 1.08086 8.81138 0 11.4505 0C18.679 0 20.6849 5.06679 22.6853 10.1336C24.1086 13.7341 25.5318 17.3344 30.1322 17.3344C34.7325 17.3344 36.1558 13.7339 37.5791 10.1336C39.5851 5.06679 41.5912 0 48.8195 0C56.0479 0 58.0483 5.06679 60.0542 10.1336C61.4775 13.7341 62.9008 17.3344 67.5012 17.3344C72.1015 17.3344 73.5248 13.7339 74.9481 10.1336C76.954 5.06679 78.9545 0 86.1828 0C93.4169 0 95.4172 5.06679 97.4232 10.1336C98.8465 13.7341 100.27 17.3344 104.87 17.3344C109.47 17.3344 110.894 13.7339 112.317 10.1336C114.317 5.06679 116.323 0 123.552 0C126.191 0 128.673 1.08082 130.679 2.93962C132.674 4.79151 134.204 7.43505 134.921 10.5604C135.235 11.9373 134.585 13.3622 133.464 13.7478C132.344 14.1334 131.184 13.3348 130.87 11.958C130.405 9.9547 129.43 8.26107 128.141 7.06337C126.858 5.8724 125.261 5.18399 123.552 5.18399C118.952 5.18399 117.528 8.78449 116.105 12.3848C114.105 17.4447 112.099 22.5184 104.87 22.5184C97.6418 22.5184 95.6358 17.4447 93.6355 12.3848C92.2122 8.78432 90.7889 5.18399 86.183 5.18399C81.5826 5.18399 80.1593 8.78449 78.7361 12.3848C76.7357 17.4447 74.7296 22.5184 67.5013 22.5184C60.273 22.5184 58.2669 17.4447 56.2665 12.3848C54.8433 8.78432 53.42 5.18399 48.8196 5.18399C44.2137 5.18399 42.7904 8.78449 41.3671 12.3848C39.3667 17.4447 37.3606 22.5184 30.1323 22.5184C22.9039 22.5184 20.8979 17.4447 18.8976 12.3848C17.4743 8.78432 16.051 5.18399 11.4507 5.18399C9.74722 5.18399 8.15023 5.8724 6.8671 7.06337C5.57831 8.26123 4.59762 9.96157 4.13257 11.9649Z" fill="#FBFCFD"/>
</svg>
